<?xml version="1.0" encoding="UTF-8"?>
<!DOCTYPE svg PUBLIC "-//W3C//DTD SVG 1.1//EN" "http://www.w3.org/Graphics/SVG/1.1/DTD/svg11.dtd">
<!-- Creator: CorelDRAW 2018 (64 Bit) -->
<svg xmlns="http://www.w3.org/2000/svg" xml:space="preserve" width="90.61mm" height="74.42mm" version="1.1" style="shape-rendering:geometricPrecision; text-rendering:geometricPrecision; image-rendering:optimizeQuality; fill-rule:evenodd; clip-rule:evenodd"
viewBox="0 0 9061 7442"
 xmlns:xlink="http://www.w3.org/1999/xlink">
 <defs>
  <style type="text/css">
   <![CDATA[
    .fil0 {fill:black}
   ]]>
  </style>
 </defs>
 <g id="Capa_x0020_1">
  <metadata id="CorelCorpID_0Corel-Layer"/>
  <g id="_2778152754320">
   <path class="fil0" d="M3844.55 42.68c0,27.23 82.58,95.28 103.72,116.42l778.93 787.4c35.13,35.12 128.01,149.75 175.42,154.78 86.74,9.2 461.1,-0.26 567.53,-0.26 608.89,0 999.7,-15.05 1505.48,289.46 160.06,96.36 300.4,215.05 431.44,347.49 134.02,135.44 231.1,295.99 328.58,458.82 85.23,142.37 147.39,324.48 183.5,493.83 130.83,613.54 -15.42,1248.84 -398.1,1714.36l-141 163.8c-52.72,68.28 -172.21,158.63 -244.38,212.82 -225.99,169.74 -515.19,307.3 -857.46,361.74 -335.7,53.4 -806.77,30.14 -1189.06,30.14 27.02,-40.34 72.59,-78.34 104.1,-116.03 44.85,-53.66 102.56,-95.28 147.41,-148.93 15.59,-18.65 16,-23.35 34.07,-42.12 107.28,-111.46 226.71,-217.24 322.76,-337.64 43.35,-54.34 101.29,-96.9 147.25,-149.09 60.99,-69.26 395.88,-406.56 395.88,-433.85l0 -211.67c0,-51.51 -8.47,-61.76 -8.47,-110.07 -36.31,24.32 -212.66,226.01 -256.04,268.89l-626.54 651.93c-20.99,23.83 -26.62,35.38 -50.79,59.27l-1037.24 1087.9c-142.59,142.35 -272.45,290.62 -414.89,431.78 -24.35,24.13 -30.73,32.22 -51.64,58.43 -17.42,21.84 -33.98,35.71 -54.17,55.89l-258.34 266.59c-21.23,22.95 -26.83,35.88 -50.57,59.5 -69.89,69.53 -518.71,531.76 -518.71,556.56l0 228.6c0,47 8.47,50.2 8.47,93.13 38.2,-25.58 46.38,-50.61 78.15,-82.72 28.55,-28.86 51.77,-51.45 80.6,-80.26l749.68 -791.26c13.71,-16.4 26.67,-27.49 41.95,-42.71l155.95 -165.78c32.3,-25.99 101.96,-14.14 146.73,-14.14l1794.94 0c123.32,0 205.35,-8.05 313.04,-17.16 172.47,-14.58 393.15,-63.98 538.91,-113.02 85.18,-28.65 157.33,-51.7 237.82,-83.91 82.98,-33.23 150.81,-63.29 228.2,-102 239.51,-119.76 490.49,-264.4 686.58,-447.96 142.98,-133.84 280.68,-265.11 400.07,-421.19 377.71,-493.74 685.71,-1109.46 685.71,-1964.36 0,-601.59 -162.94,-1106.6 -424.87,-1539.39 -51.63,-85.31 -99.23,-160.11 -155.87,-242.07l-213.07 -269.52c-93.17,-105.79 -195.71,-199.08 -300.37,-292.31 -196.74,-175.23 -417.92,-307.22 -647.18,-436.55l-138.35 -64.85c-362.16,-161.36 -780.6,-271.04 -1303.76,-271.04l-1998.13 0c-22.85,0 -33.87,22.54 -33.87,42.33z"/>
   <path class="fil0" d="M2151.22 4902.55c10.84,40.6 342.66,355.36 378.88,391.58l391.59 387.35c44.11,-29.54 67.13,-65.2 95.63,-99.09 12.28,-14.6 21.03,-20.43 33.4,-34.34 321.94,-362.02 514.43,-848.21 514.43,-1339.77l0 -4165.6c0,-19.82 -14.04,-33.86 -33.86,-33.86l-1032.94 0c-49.15,0 -33.94,79.33 -33.87,126.99l0.01 3767.67c0,344.4 12.62,552.79 -164.15,817.99 -48.13,72.21 -129.75,152.16 -149.12,181.08z"/>
   <path class="fil0" d="M0.69 5698.42c23.87,6.37 82.27,68.4 130.66,106.4 385.13,302.5 782.5,460.86 1317.14,460.86 19.82,0 33.86,-14.04 33.86,-33.86l0 -1024.47c0,-46.64 -55.85,-30.95 -99.24,-36.22 -211.32,-25.68 -417.15,-91.8 -571.91,-240.89 -26.27,-25.3 -44.95,-50.63 -73.91,-70.02 -41.45,27.75 -589.06,592.59 -687.93,690.29 -63.14,62.39 -48.67,31.29 -48.67,147.91z"/>
  </g>
 </g>
</svg>
